<svg xmlns="http://www.w3.org/2000/svg" viewBox="0 0 900 620" role="img" aria-labelledby="title desc">
<title id="title">Squishy Fair glowing mascot artwork</title><desc id="desc">Three original plush mascots floating above a neon pink radar.</desc>
<defs>
  <radialGradient id="bg" cx="50%" cy="40%"><stop offset="0" stop-color="#54245f" stop-opacity=".55"/><stop offset="1" stop-color="#090610" stop-opacity="0"/></radialGradient>
  <linearGradient id="cat" x1="0" y1="0" x2="1" y2="1"><stop stop-color="#ff9bd6"/><stop offset="1" stop-color="#7d3b8f"/></linearGradient>
  <linearGradient id="moon" x1="0" y1="0" x2="1" y2="1"><stop stop-color="#ffe2a4"/><stop offset="1" stop-color="#ef7db2"/></linearGradient>
  <linearGradient id="ghost" x1="0" y1="0" x2="1" y2="1"><stop stop-color="#b998ff"/><stop offset="1" stop-color="#5d3b9e"/></linearGradient>
  <filter id="glow"><feGaussianBlur stdDeviation="12" result="b"/><feMerge><feMergeNode in="b"/><feMergeNode in="SourceGraphic"/></feMerge></filter>
  <filter id="soft"><feDropShadow dx="0" dy="20" stdDeviation="18" flood-color="#000" flood-opacity=".35"/></filter>
</defs>
<rect width="900" height="620" fill="url(#bg)"/>
<g opacity=".7" fill="none" stroke="#ff56b4" filter="url(#glow)">
  <circle cx="450" cy="380" r="210" stroke-opacity=".22"/><circle cx="450" cy="380" r="150" stroke-opacity=".18"/><circle cx="450" cy="380" r="88" stroke-opacity=".15"/>
  <path d="M450 380L670 220A260 260 0 0 1 650 520Z" fill="#ff4cab" fill-opacity=".08" stroke="none"/>
</g>
<g fill="#fff" opacity=".9"><circle cx="135" cy="120" r="4"/><circle cx="760" cy="105" r="5"/><circle cx="730" cy="280" r="3"/><circle cx="205" cy="310" r="3"/></g>
<g filter="url(#soft)">
  <g transform="translate(110 205)">
    <path d="M75 30L45 0 34 48M165 30L195 0 206 48" fill="url(#cat)" stroke="#ffb6df" stroke-width="7" stroke-linejoin="round"/>
    <rect x="34" y="26" width="172" height="166" rx="72" fill="url(#cat)" stroke="#ffb6df" stroke-width="7"/>
    <ellipse cx="87" cy="97" rx="10" ry="15" fill="#261124"/><ellipse cx="153" cy="97" rx="10" ry="15" fill="#261124"/>
    <circle cx="84" cy="92" r="3" fill="#fff"/><circle cx="150" cy="92" r="3" fill="#fff"/>
    <path d="M105 126Q120 140 135 126" fill="none" stroke="#39152f" stroke-width="7" stroke-linecap="round"/>
    <ellipse cx="67" cy="126" rx="15" ry="8" fill="#ff63ad" opacity=".75"/><ellipse cx="173" cy="126" rx="15" ry="8" fill="#ff63ad" opacity=".75"/>
  </g>
  <g transform="translate(325 120)">
    <circle cx="125" cy="125" r="112" fill="url(#moon)" stroke="#ffe4bf" stroke-width="8"/>
    <path d="M162 26A112 112 0 0 0 190 219A112 112 0 1 1 162 26Z" fill="#fff2cf" opacity=".32"/>
    <ellipse cx="91" cy="122" rx="10" ry="15" fill="#442137"/><ellipse cx="151" cy="122" rx="10" ry="15" fill="#442137"/>
    <circle cx="88" cy="117" r="3" fill="#fff"/><circle cx="148" cy="117" r="3" fill="#fff"/>
    <path d="M105 151Q121 165 137 151" fill="none" stroke="#58253d" stroke-width="7" stroke-linecap="round"/>
    <circle cx="57" cy="69" r="13" fill="#dc78a4" opacity=".35"/><circle cx="178" cy="77" r="20" fill="#dc78a4" opacity=".28"/>
  </g>
  <g transform="translate(610 210)">
    <path d="M42 85Q42 18 120 18Q198 18 198 85V194L171 170 145 194 120 170 94 194 68 170 42 194Z" fill="url(#ghost)" stroke="#d5c5ff" stroke-width="8" stroke-linejoin="round"/>
    <ellipse cx="91" cy="100" rx="10" ry="15" fill="#251a40"/><ellipse cx="149" cy="100" rx="10" ry="15" fill="#251a40"/>
    <circle cx="88" cy="95" r="3" fill="#fff"/><circle cx="146" cy="95" r="3" fill="#fff"/>
    <path d="M105 132Q120 145 135 132" fill="none" stroke="#342251" stroke-width="7" stroke-linecap="round"/>
    <text x="120" y="165" text-anchor="middle" font-family="Arial,sans-serif" font-size="21" font-weight="700" fill="#efe9ff">BOO!</text>
  </g>
</g>
<g filter="url(#glow)">
  <g transform="translate(240 415)"><path d="M0 0C0-30 25-55 55-55S110-30 110 0C110 42 55 96 55 96S0 42 0 0Z" fill="#ff4cab"/><circle cx="55" cy="0" r="24" fill="#2b1735"/><path d="M55-11l4 8 9 1-7 6 2 9-8-5-8 5 2-9-7-6 9-1z" fill="#ff9fd3"/></g>
  <g transform="translate(610 390) scale(.78)"><path d="M0 0C0-30 25-55 55-55S110-30 110 0C110 42 55 96 55 96S0 42 0 0Z" fill="#a35cff"/><circle cx="55" cy="0" r="24" fill="#2b1735"/><path d="M55-11l4 8 9 1-7 6 2 9-8-5-8 5 2-9-7-6 9-1z" fill="#ffd6ef"/></g>
</g>
</svg>